{"asset":{"version":"2.0","generator":"Blockbench 4.7.4 glTF exporter"},"scenes":[{"nodes":[6],"name":"blockbench_export"}],"scene":0,"nodes":[{"rotation":[0.7071067811865475,0,0,0.7071067811865476],"translation":[-7.228014483236696e-19,0.8749999999999996,0.24999999999999978],"name":"tube","mesh":0},{"rotation":[0.8191520442889917,0,0,0.5735764363510462],"translation":[0,0.2867331009745281,-0.762788718326072],"name":"cuboid","mesh":1},{"rotation":[0,0,0.7071067811865475,0.7071067811865476],"translation":[-0.2108734337257651,0.7790184931173577,-0.3125],"name":"torus","mesh":2},{"name":"cuboid","mesh":3},{"translation":[0,1.1236069440126513,0.11553005712242581],"name":"Barrel","children":[3]},{"name":"Pistol","children":[0,1,2,4]},{"children":[5]}],"bufferViews":[{"buffer":0,"byteOffset":0,"byteLength":2304,"target":34962,"byteStride":12},{"buffer":0,"byteOffset":2304,"byteLength":2304,"target":34962,"byteStride":12},{"buffer":0,"byteOffset":4608,"byteLength":1536,"target":34962,"byteStride":8},{"buffer":0,"byteOffset":6144,"byteLength":576,"target":34963},{"buffer":0,"byteOffset":6720,"byteLength":288,"target":34962,"byteStride":12},{"buffer":0,"byteOffset":7008,"byteLength":288,"target":34962,"byteStride":12},{"buffer":0,"byteOffset":7296,"byteLength":192,"target":34962,"byteStride":8},{"buffer":0,"byteOffset":7488,"byteLength":72,"target":34963},{"buffer":0,"byteOffset":7560,"byteLength":4608,"target":34962,"byteStride":12},{"buffer":0,"byteOffset":12168,"byteLength":4608,"target":34962,"byteStride":12},{"buffer":0,"byteOffset":16776,"byteLength":3072,"target":34962,"byteStride":8},{"buffer":0,"byteOffset":19848,"byteLength":1152,"target":34963},{"buffer":0,"byteOffset":21000,"byteLength":288,"target":34962,"byteStride":12},{"buffer":0,"byteOffset":21288,"byteLength":288,"target":34962,"byteStride":12},{"buffer":0,"byteOffset":21576,"byteLength":192,"target":34962,"byteStride":8},{"buffer":0,"byteOffset":21768,"byteLength":72,"target":34963},{"buffer":0,"byteOffset":21840,"byteLength":12},{"buffer":0,"byteOffset":21852,"byteLength":36},{"buffer":0,"byteOffset":21888,"byteLength":44},{"buffer":0,"byteOffset":21932,"byteLength":176},{"buffer":0,"byteOffset":22108,"byteLength":52},{"buffer":0,"byteOffset":22160,"byteLength":156}],"buffers":[{"byteLength":22316,"uri":"data:application/octet-stream;base64,"}],"accessors":[{"bufferView":0,"componentType":5126,"count":192,"max":[0.09264761954545975,0.6875,-0.15735238790512085],"min":[-0.09264761954545975,-0.6875,-0.34264761209487915],"type":"VEC3"},{"bufferView":1,"componentType":5126,"count":192,"max":[1,1,1],"min":[-1,0,-1],"type":"VEC3"},{"bufferView":2,"componentType":5126,"count":192,"max":[0.12390437722206116,0.5],"min":[0,0],"type":"VEC2"},{"bufferView":3,"componentType":5123,"count":288,"max":[191],"min":[0],"type":"SCALAR"},{"bufferView":4,"componentType":5126,"count":24,"max":[0.15625,0.125,0.28125],"min":[-0.15625,-0.125,-0.78125],"type":"VEC3"},{"bufferView":5,"componentType":5126,"count":24,"max":[1,1,1],"min":[-1,-1,-1],"type":"VEC3"},{"bufferView":6,"componentType":5126,"count":24,"max":[0.0625,0.5],"min":[0,0],"type":"VEC2"},{"bufferView":7,"componentType":5123,"count":36,"max":[23],"min":[0],"type":"SCALAR"},{"bufferView":8,"componentType":5126,"count":384,"max":[0.3125,-0.09264761954545975,0.3125],"min":[-0.1875,-0.15735238790512085,-0.1875],"type":"VEC3"},{"bufferView":9,"componentType":5126,"count":384,"max":[0.7807929515838623,0.9777769446372986,0.7807929515838623],"min":[-0.7807929515838623,-0.9777769446372986,-0.7807929515838623],"type":"VEC3"},{"bufferView":10,"componentType":5126,"count":384,"max":[0.7374521493911743,0.625],"min":[0.005526956170797348,0],"type":"VEC2"},{"bufferView":11,"componentType":5123,"count":576,"max":[383],"min":[0],"type":"SCALAR"},{"bufferView":12,"componentType":5126,"count":24,"max":[0.15625,0.125,0.71875],"min":[-0.15625,-0.125,-0.71875],"type":"VEC3"},{"bufferView":13,"componentType":5126,"count":24,"max":[1,1,1],"min":[-1,-1,-1],"type":"VEC3"},{"bufferView":14,"componentType":5126,"count":24,"max":[0.359375,0.046875],"min":[0.015625,0.015625],"type":"VEC2"},{"bufferView":15,"componentType":5123,"count":36,"max":[23],"min":[0],"type":"SCALAR"},{"bufferView":16,"componentType":5126,"count":3,"max":[0.25],"min":[0],"type":"SCALAR"},{"bufferView":17,"componentType":5126,"count":3,"max":[0,1.1236069202423096,0.11553005874156952],"min":[0,1.1236069202423096,-0.5719699263572693],"type":"VEC3"},{"bufferView":18,"componentType":5126,"count":11,"max":[0.5833333134651184],"min":[0],"type":"SCALAR"},{"bufferView":19,"componentType":5126,"count":11,"max":[0,0,0,1],"min":[-0.2923716902732849,0,0,0.9563047289848328],"type":"VEC4"},{"bufferView":20,"componentType":5126,"count":13,"max":[0.7083333134651184],"min":[0],"type":"SCALAR"},{"bufferView":21,"componentType":5126,"count":13,"max":[0,0,0],"min":[-0.0625,0,-0.375],"type":"VEC3"}],"materials":[{"pbrMetallicRoughness":{"metallicFactor":0,"roughnessFactor":1},"alphaMode":"MASK","alphaCutoff":0.05,"doubleSided":true},{"pbrMetallicRoughness":{"metallicFactor":0,"roughnessFactor":1,"baseColorTexture":{"index":0}},"alphaMode":"MASK","alphaCutoff":0.05,"doubleSided":true},{"pbrMetallicRoughness":{"metallicFactor":0,"roughnessFactor":1,"baseColorTexture":{"index":1}},"alphaMode":"MASK","alphaCutoff":0.05,"doubleSided":true}],"meshes":[{"primitives":[{"mode":4,"attributes":{"POSITION":0,"NORMAL":1,"TEXCOORD_0":2},"indices":3,"material":0}]},{"primitives":[{"mode":4,"attributes":{"POSITION":4,"NORMAL":5,"TEXCOORD_0":6},"indices":7,"material":0}]},{"primitives":[{"mode":4,"attributes":{"POSITION":8,"NORMAL":9,"TEXCOORD_0":10},"indices":11,"material":1}]},{"primitives":[{"mode":4,"attributes":{"POSITION":12,"NORMAL":13,"TEXCOORD_0":14},"indices":15,"material":2}]}],"textures":[{"sampler":0,"source":0,"name":"texture.png"},{"sampler":1,"source":1,"name":"texture2.png"}],"samplers":[{"magFilter":9728,"minFilter":9728,"wrapS":33071,"wrapT":33071},{"magFilter":9728,"minFilter":9728,"wrapS":33071,"wrapT":33071}],"images":[{"mimeType":"image/png","uri":"data:image/png;base64,"},{"mimeType":"image/png","uri":"data:image/png;base64,"}],"animations":[{"name":"fire","samplers":[{"input":16,"output":17,"interpolation":"LINEAR"},{"input":18,"output":19,"interpolation":"LINEAR"},{"input":20,"output":21,"interpolation":"LINEAR"}],"channels":[{"sampler":0,"target":{"node":4,"path":"translation"}},{"sampler":1,"target":{"node":5,"path":"rotation"}},{"sampler":2,"target":{"node":5,"path":"translation"}}]}]}